<svg width="40" height="40" viewBox="0 0 40 40" fill="none" xmlns="http://www.w3.org/2000/svg">
<g clip-path="url(#clip0)">
<path d="M36.3429 22.2699C36.3429 27.083 33.2131 33.7346 29.4288 37.3682C27.7505 38.9819 25.9429 40.0001 24.222 40.0001C23.1344 40.0001 22.0495 39.8254 21.1162 39.5436C19.8375 39.1566 18.4776 39.1566 17.1988 39.5436C16.2656 39.8254 15.1808 40.0001 14.0931 40.0001C12.2903 40.0001 10.3909 38.8815 8.64498 37.1317C4.96982 33.4517 1.97217 26.9796 1.97217 22.2699C1.97217 15.321 6.12896 11.1228 10.0376 10.1094C11.91 9.62392 14.0825 9.93666 15.837 10.3931C17.6515 10.866 19.5372 10.9452 21.3748 10.6306C21.7454 10.5669 22.1131 10.4878 22.4779 10.3931C24.2326 9.93666 26.404 9.62392 28.2773 10.1094C32.1862 11.1228 36.3429 15.3211 36.3429 22.2699Z" fill="#F94848"/>
<path d="M29.4286 37.3678C24.7845 38.1885 21.2075 37.9611 18.5122 37.3085C14.1111 36.2428 10.837 32.5306 10.2914 28.0353C8.92475 16.7767 16.281 13.4989 16.281 13.4989C18.4371 14.4785 20.8615 13.9554 20.8615 13.9554C19.3144 12.4093 21.3749 10.6306 21.3749 10.6306C19.5373 10.9452 17.6515 10.866 15.8371 10.3931C14.0825 9.93666 11.9101 9.62392 10.0377 10.1094C6.12889 11.1228 1.97217 15.3211 1.97217 22.2699C1.97217 29.2178 8.49537 40.0001 14.093 40.0001C15.1807 40.0001 16.2655 39.8254 17.1988 39.5436C18.4776 39.1566 19.8374 39.1566 21.1162 39.5436C22.0495 39.8254 23.1343 40.0001 24.222 40.0001C25.9428 40.0001 27.7505 38.9819 29.4288 37.3682C29.4286 37.368 29.4288 37.3682 29.4286 37.3678Z" fill="#E23D3D"/>
<path d="M38.0279 0.43083C38.0279 0.43083 37.0627 7.15864 31.9795 9.11692C27.1201 10.9893 22.7886 5.92724 21.0119 6.32583C20.9318 6.34224 20.8575 6.37122 20.788 6.4127C20.7851 6.41364 20.7842 6.41466 20.7842 6.41466L20.7851 6.41083C20.845 6.22942 22.7936 0.425205 27.7977 0.0448921C32.8808 -0.34128 35.6469 1.97505 38.0279 0.43083Z" fill="#C7F492"/>
<path d="M38.0274 0.43083C38.0274 0.43083 34.9391 4.19481 30.596 4.19481C26.777 4.19481 22.0875 5.91083 21.0114 6.32583C20.8821 6.37505 20.8059 6.40591 20.7875 6.4127C20.7846 6.41364 20.7837 6.41466 20.7837 6.41466L20.7846 6.41083C20.8445 6.22942 22.7931 0.425205 27.7972 0.0448921C32.8804 -0.34128 35.6465 1.97505 38.0274 0.43083Z" fill="#A3E261"/>
<path d="M33.0083 19.1103C32.8186 17.2012 31.6633 15.7531 30.428 15.8758C29.1927 15.9986 28.3451 17.6458 28.5349 19.5549C28.7246 21.464 29.8798 22.9121 31.1151 22.7893C32.3505 22.6665 33.1981 21.0194 33.0083 19.1103Z" fill="#FC8181"/>
<path d="M22.7569 13.0029C22.7569 13.7934 21.5158 14.4516 19.8683 14.6011C19.6387 14.6224 19.4012 14.633 19.158 14.633C18.9042 14.633 18.6572 14.6214 18.4187 14.5993C16.7867 14.4439 15.5601 13.7886 15.5601 13.0029H22.7569Z" fill="#E23D3D"/>
<path d="M21.9039 6.329L19.2643 10.3381C19.4621 11.1507 19.633 12.0463 19.744 13.0027C19.8047 13.5191 19.8482 14.0528 19.8685 14.601C19.6388 14.6222 19.4014 14.6328 19.1582 14.6328C18.9044 14.6328 18.6573 14.6213 18.4189 14.5991C18.3976 14.0509 18.3504 13.5181 18.2857 13.0027C17.8128 9.25517 16.367 6.49494 16.3497 6.46408C16.1624 6.11087 16.2966 5.67267 16.6498 5.48548C17.003 5.29728 17.4412 5.43142 17.6284 5.7847C17.6709 5.8658 18.2026 6.88205 18.7393 8.50345L20.6956 5.53283C20.9147 5.19892 21.3644 5.1072 21.6974 5.32728C22.0313 5.54634 22.124 5.99509 21.9039 6.329Z" fill="#B25719"/>
</g>
<defs>
<clipPath id="clip0">
<rect width="40" height="40" fill="white"/>
</clipPath>
</defs>
</svg>
