<svg width="85" height="85" viewBox="0 0 85 85" fill="none" xmlns="http://www.w3.org/2000/svg">
<path d="M80.9154 80.2777H17.6714C10.8719 80.2777 5.35986 74.7657 5.35986 67.9662V65.6051C5.35986 58.8056 10.8719 53.2936 17.6714 53.2936H80.9154V80.2777Z" fill="#FFEBB7"/>
<path d="M14.8041 55.9921H8.05811V77.5794H14.8041V55.9921Z" fill="#5C546A"/>
<path d="M74.5069 49.2459H2.66162V30.3571H74.5069C76.556 30.3571 78.2172 32.0183 78.2172 34.0674V45.5356C78.2172 47.5847 76.556 49.2459 74.5069 49.2459Z" fill="#FFEBB7"/>
<path d="M80.9155 6.07141H12.106V26.3095H80.9155V6.07141Z" fill="#FFEBB7"/>
<path d="M80.9522 82.9762H18.8887C9.96136 82.9762 2.69824 75.7137 2.69824 66.7857C2.69824 57.8577 9.96136 50.5952 18.8887 50.5952H80.9522C82.4424 50.5952 83.6506 51.8034 83.6506 53.2936C83.6506 54.7838 82.4424 55.992 80.9522 55.992H18.8887C12.9372 55.992 8.09507 60.8342 8.09507 66.7857C8.09507 72.7372 12.9372 77.5793 18.8887 77.5793H80.9522C82.4424 77.5793 83.6506 78.7875 83.6506 80.2777C83.6506 81.7679 82.4424 82.9762 80.9522 82.9762Z" fill="#00C37A"/>
<path d="M72.8571 50.5952H1.34921C0.603433 50.5952 0 49.9918 0 49.246C0 48.5003 0.603433 47.8968 1.34921 47.8968H72.8571C75.0891 47.8968 76.9048 46.0811 76.9048 43.8492V35.754C76.9048 33.522 75.0891 31.7063 72.8571 31.7063H1.34921C0.603433 31.7063 0 31.1029 0 30.3571C0 29.6114 0.603433 29.0079 1.34921 29.0079H72.8571C76.5767 29.0079 79.6032 32.0344 79.6032 35.754V43.8492C79.6032 47.5688 76.5767 50.5952 72.8571 50.5952Z" fill="#009BCA"/>
<path d="M80.9156 12.8176H18.8521C18.107 12.8176 17.5029 12.2134 17.5029 11.4683C17.5029 10.7232 18.107 10.1191 18.8521 10.1191H80.9156V12.8176Z" fill="#E6BE94"/>
<path d="M80.9156 18.2143H18.8521C18.107 18.2143 17.5029 17.6102 17.5029 16.8651C17.5029 16.12 18.107 15.5159 18.8521 15.5159H80.9156V18.2143Z" fill="#E6BE94"/>
<path d="M80.9156 23.6111H18.8521C18.107 23.6111 17.5029 23.007 17.5029 22.2619C17.5029 21.5168 18.107 20.9127 18.8521 20.9127H80.9156V23.6111Z" fill="#E6BE94"/>
<path d="M2.66162 34.4048H72.8204C73.5655 34.4048 74.1696 35.0089 74.1696 35.754C74.1696 36.4991 73.5655 37.1032 72.8204 37.1032H2.66162C2.66162 37.1032 2.66162 34.4048 2.66162 34.4048Z" fill="#E6BE94"/>
<path d="M2.66162 39.8016H72.8204C73.5655 39.8016 74.1696 40.4057 74.1696 41.1508C74.1696 41.8959 73.5655 42.5 72.8204 42.5H2.66162C2.66162 42.5 2.66162 39.8016 2.66162 39.8016Z" fill="#E6BE94"/>
<path d="M2.66162 45.1985H72.8204C73.5655 45.1985 74.1696 45.8026 74.1696 46.5477C74.1696 47.2928 73.5655 47.8969 72.8204 47.8969H2.66162C2.66162 47.8969 2.66162 45.1985 2.66162 45.1985Z" fill="#E6BE94"/>
<path d="M82.3015 29.0079H17.5396C13.0756 29.0079 9.44434 25.3767 9.44434 20.9127V10.119C9.44434 5.65502 13.0756 2.0238 17.5396 2.0238H82.3015C83.7917 2.0238 84.9999 3.23202 84.9999 4.72222C84.9999 6.21241 83.7917 7.42063 82.3015 7.42063H17.5396C16.0514 7.42063 14.8412 8.63087 14.8412 10.119V20.9127C14.8412 22.4002 16.0514 23.6111 17.5396 23.6111H82.3015C83.7917 23.6111 84.9999 24.8193 84.9999 26.3095C84.9999 27.7997 83.7917 29.0079 82.3015 29.0079Z" fill="#FF4F19"/>
<path d="M18.8521 74.881C18.1064 74.881 17.5029 75.4844 17.5029 76.2302C17.5029 76.976 18.1064 77.5794 18.8521 77.5794H80.9156V74.881H18.8521Z" fill="#E6BE94"/>
<path d="M18.8521 69.4843C18.1064 69.4843 17.5029 70.0877 17.5029 70.8335C17.5029 71.5792 18.1064 72.1827 18.8521 72.1827H80.9156V69.4843H18.8521Z" fill="#E6BE94"/>
<path d="M18.8521 64.0873C18.1064 64.0873 17.5029 64.6907 17.5029 65.4365C17.5029 66.1823 18.1064 66.7857 18.8521 66.7857H80.9156V64.0873H18.8521Z" fill="#E6BE94"/>
<path d="M18.8521 58.6906C18.1064 58.6906 17.5029 59.294 17.5029 60.0398C17.5029 60.7855 18.1064 61.389 18.8521 61.389H80.9156V58.6906H18.8521Z" fill="#E6BE94"/>
</svg>
