<svg width="45" height="45" viewBox="0 0 45 45" fill="none" xmlns="http://www.w3.org/2000/svg">
<path d="M9.04883 6.20215L12.4291 43.7635C12.4921 44.4635 13.079 44.9999 13.7818 44.9999H31.218C31.9209 44.9999 32.5077 44.4635 32.5707 43.7635L35.9511 6.20215H9.04883Z" fill="#E9E3D5"/>
<path d="M35.951 6.20215H29.3221L26.0064 42.2836H12.2959L12.4291 43.7635C12.4921 44.4635 13.0789 44.9999 13.7818 44.9999H24.5191H31.218C31.9102 44.9999 32.5069 44.4708 32.5706 43.7635L35.951 6.20215Z" fill="#B6B0A2"/>
<path d="M36.0814 2.71626V4.75348H8.91846V2.71626C8.91846 1.21605 10.1345 0 11.6347 0H33.3651C34.8654 0 36.0814 1.21605 36.0814 2.71626Z" fill="#6C7A88"/>
<path d="M36.308 4.75356H36.0817V2.71626C36.0816 1.21614 34.8654 0 33.3653 0V2.03722H9.00415C8.94825 2.25422 8.91855 2.48177 8.91855 2.71626V4.75348H8.69223C8.3172 4.75348 8.01318 5.05749 8.01318 5.43252V6.79069C8.01318 7.16581 8.3172 7.46974 8.69223 7.46974H36.3079C36.6829 7.46974 36.9869 7.16581 36.9869 6.79069V5.43261C36.987 5.05758 36.683 4.75356 36.308 4.75356Z" fill="#46525E"/>
<path d="M9.8013 14.5774C9.43567 14.5774 9.14897 14.8912 9.18176 15.2551L10.8216 33.4779C10.8505 33.7985 11.1192 34.0442 11.4412 34.0442H26.7636L31.3123 23.9593L28.5526 14.5774H9.8013Z" fill="#B66652"/>
<path d="M35.1985 14.5774H28.5524L27.0132 31.328H10.6279L10.8214 33.478C10.8503 33.7986 11.119 34.0443 11.4409 34.0443C12.4747 34.0443 32.9145 34.0443 33.5586 34.0443C33.8805 34.0443 34.1492 33.7986 34.178 33.478L35.8178 15.2551C35.8507 14.8912 35.564 14.5774 35.1985 14.5774Z" fill="#81493B"/>
</svg>
