<svg width="294" height="199" viewBox="0 0 294 199" fill="none" xmlns="http://www.w3.org/2000/svg">
<path d="M12.7358 16.5851L12.5981 16.1339H12.5747C12.4185 16.3312 12.2612 16.4659 12.103 16.5382C11.9448 16.6085 11.7417 16.6437 11.4937 16.6437C11.1753 16.6437 10.9263 16.5577 10.7466 16.3859C10.5688 16.214 10.48 15.9708 10.48 15.6564C10.48 15.3224 10.604 15.0704 10.8521 14.9005C11.1001 14.7306 11.478 14.6378 11.9858 14.6222L12.5454 14.6046V14.4318C12.5454 14.2247 12.4966 14.0704 12.3989 13.9689C12.3032 13.8654 12.1538 13.8136 11.9507 13.8136C11.7847 13.8136 11.6255 13.838 11.4731 13.8868C11.3208 13.9357 11.1743 13.9933 11.0337 14.0597L10.811 13.5675C10.9868 13.4757 11.1792 13.4064 11.3882 13.3595C11.5972 13.3107 11.7944 13.2863 11.98 13.2863C12.3921 13.2863 12.7026 13.3761 12.9116 13.5558C13.1226 13.7355 13.228 14.0177 13.228 14.4025V16.5851H12.7358ZM11.7104 16.1163C11.9604 16.1163 12.1606 16.047 12.311 15.9083C12.4634 15.7677 12.5396 15.5714 12.5396 15.3195V15.0382L12.1235 15.0558C11.7993 15.0675 11.563 15.1222 11.4146 15.2198C11.2681 15.3156 11.1948 15.463 11.1948 15.6622C11.1948 15.8068 11.2378 15.9191 11.3237 15.9991C11.4097 16.0773 11.5386 16.1163 11.7104 16.1163Z" fill="white"/>
<rect x="141.892" y="163.011" width="11.3514" height="31.7553" fill="#6A6A6A"/>
<rect width="294" height="166.186" rx="8" fill="#6A6A6A"/>
<rect x="3.40527" y="3.17554" width="287.189" height="159.835" rx="8" fill="#D8D8D8"/>
<ellipse cx="147.568" cy="196.354" rx="20.4324" ry="2.64628" fill="#6A6A6A"/>
<path d="M3.40527 11.1755C3.40527 6.75726 6.987 3.17554 11.4053 3.17554H282.594C287.013 3.17554 290.594 6.75726 290.594 11.1755V17.9947H3.40527V11.1755Z" fill="white"/>
<ellipse cx="263.351" cy="10.5852" rx="5.67568" ry="5.29255" fill="url(#paint0_linear)"/>
<path d="M3.40527 11.1215C3.40527 6.73307 6.96279 3.17554 11.3512 3.17554C15.7396 3.17554 19.2972 6.73306 19.2972 11.1215V163.011H11.4053C6.98699 163.011 3.40527 159.429 3.40527 155.011V11.1215Z" fill="white"/>
<path d="M12.9181 106.181C12.9317 106.076 12.9408 105.965 12.9408 105.851C12.9408 105.737 12.9317 105.627 12.9136 105.521L13.6809 104.962C13.749 104.911 13.7672 104.818 13.7263 104.746L12.9999 103.573C12.9545 103.497 12.8591 103.472 12.7774 103.497L11.8738 103.836C11.6831 103.7 11.4833 103.59 11.2608 103.505L11.1246 102.608C11.111 102.523 11.0338 102.464 10.943 102.464H9.49002C9.39921 102.464 9.32656 102.523 9.31294 102.608L9.17672 103.505C8.95424 103.59 8.74991 103.704 8.56375 103.836L7.66018 103.497C7.57845 103.467 7.4831 103.497 7.4377 103.573L6.71121 104.746C6.6658 104.822 6.68397 104.911 6.75662 104.962L7.52397 105.521C7.5058 105.627 7.49218 105.741 7.49218 105.851C7.49218 105.961 7.50126 106.076 7.51943 106.181L6.75207 106.74C6.68397 106.791 6.6658 106.884 6.70667 106.956L7.43316 108.129C7.47856 108.205 7.57391 108.231 7.65564 108.205L8.55921 107.867C8.74991 108.002 8.9497 108.112 9.17218 108.197L9.3084 109.094C9.32656 109.179 9.39921 109.238 9.49002 109.238H10.943C11.0338 109.238 11.111 109.179 11.1201 109.094L11.2563 108.197C11.4788 108.112 11.6831 107.998 11.8693 107.867L12.7728 108.205C12.8546 108.235 12.9499 108.205 12.9953 108.129L13.7218 106.956C13.7672 106.88 13.749 106.791 13.6764 106.74L12.9181 106.181ZM10.2165 107.121C9.46732 107.121 8.85434 106.55 8.85434 105.851C8.85434 105.152 9.46732 104.581 10.2165 104.581C10.9657 104.581 11.5787 105.152 11.5787 105.851C11.5787 106.55 10.9657 107.121 10.2165 107.121Z" fill="#808080" fill-opacity="0.6"/>
<rect x="61.2974" y="25.4043" width="53.3514" height="9.5266" rx="4.7633" fill="#9B9B9B"/>
<path d="M123.729 31.226C123.729 29.1799 125.388 27.5212 127.434 27.5212H156.349C158.395 27.5212 160.054 29.1799 160.054 31.226C160.054 33.2721 158.395 34.9308 156.349 34.9308H127.434C125.388 34.9308 123.729 33.2721 123.729 31.226Z" fill="#9B9B9B"/>
<path d="M215.676 31.2261C215.676 29.7646 216.861 28.5798 218.322 28.5798H244.813C246.275 28.5798 247.46 29.7646 247.46 31.2261C247.46 32.6876 246.275 33.8724 244.813 33.8724H218.322C216.861 33.8724 215.676 32.6876 215.676 31.2261Z" fill="#9B9B9B"/>
<path d="M200.948 31.226C200.948 33.1101 199.244 34.6808 197.086 34.6808C194.927 34.6808 193.223 33.1101 193.223 31.226C193.223 29.3419 194.927 27.7712 197.086 27.7712C199.244 27.7712 200.948 29.3419 200.948 31.226Z" fill="url(#paint1_linear)" stroke="white" stroke-width="0.5"/>
<path d="M206.643 31.2259C206.643 33.11 204.938 34.6807 202.78 34.6807C200.622 34.6807 198.917 33.11 198.917 31.2259C198.917 29.3418 200.622 27.7711 202.78 27.7711C204.938 27.7711 206.643 29.3418 206.643 31.2259Z" fill="url(#paint2_linear)" stroke="white" stroke-width="0.5"/>
<path d="M212.02 31.2259C212.02 33.11 210.316 34.6807 208.158 34.6807C206 34.6807 204.295 33.11 204.295 31.2259C204.295 29.3418 206 27.7711 208.158 27.7711C210.316 27.7711 212.02 29.3418 212.02 31.2259Z" fill="url(#paint3_linear)" stroke="white" stroke-width="0.5"/>
<path d="M200.919 135.197C200.919 132.435 203.158 130.197 205.919 130.197H250.405C253.167 130.197 255.405 132.435 255.405 135.197V163.011H200.919V135.197Z" fill="white"/>
<rect x="203.189" y="141.84" width="3.40541" height="3.17553" rx="1" fill="#E4E4E4"/>
<rect x="203.189" y="153.484" width="3.40541" height="3.17553" rx="1" fill="#E4E4E4"/>
<rect x="236.108" y="141.84" width="12.4865" height="3.17553" rx="1" fill="#E4E4E4"/>
<rect x="236.108" y="153.484" width="12.4865" height="3.17553" rx="1" fill="#E4E4E4"/>
<path d="M219.11 143.428C219.11 145.312 217.406 146.883 215.248 146.883C213.089 146.883 211.385 145.312 211.385 143.428C211.385 141.544 213.089 139.973 215.248 139.973C217.406 139.973 219.11 141.544 219.11 143.428Z" fill="url(#paint4_linear)" stroke="white" stroke-width="0.5"/>
<path d="M203.189 134.431C203.189 133.846 203.663 133.372 204.247 133.372H216.887C217.472 133.372 217.946 133.846 217.946 134.431C217.946 135.015 217.472 135.489 216.887 135.489H204.247C203.663 135.489 203.189 135.015 203.189 134.431Z" fill="#D5D0D0"/>
<rect x="27" y="9" width="11" height="3" rx="1" fill="#E4E4E4"/>
<rect x="7" y="8" width="15" height="4" rx="1" fill="#E4E4E4"/>
<rect x="43" y="9" width="12" height="3" rx="1" fill="#E4E4E4"/>
<rect x="59" y="9" width="11" height="3" rx="1" fill="#E4E4E4"/>
<rect x="160.054" y="6.35107" width="52.2162" height="8.46809" rx="1" fill="#EEEEEE"/>
<rect x="9.08105" y="59.2766" width="4.54054" height="1.05851" rx="0.529255" fill="#C4C4C4"/>
<rect x="9.08105" y="60.3351" width="4.54054" height="1.05851" rx="0.529255" fill="#C4C4C4"/>
<rect x="9.08105" y="61.3936" width="4.54054" height="1.05851" rx="0.529255" fill="#C4C4C4"/>
<rect x="6.81055" y="61.3936" width="1.13514" height="1.05851" rx="0.529255" fill="#C4C4C4"/>
<rect x="6.81055" y="60.3351" width="1.13514" height="1.05851" rx="0.529255" fill="#C4C4C4"/>
<rect x="6.81055" y="59.2766" width="1.13514" height="1.05851" rx="0.529255" fill="#C4C4C4"/>
<rect x="9.08105" y="71.9788" width="3.40541" height="3.17553" rx="1" fill="#C4C4C4"/>
<rect x="9.08105" y="88.9149" width="4.54054" height="1.05851" rx="0.529255" fill="white"/>
<rect x="9.08105" y="89.9734" width="4.54054" height="1.05851" rx="0.529255" fill="white"/>
<rect x="9.08105" y="91.032" width="2.27027" height="1.05851" rx="0.529255" fill="white"/>
<rect x="62.4326" y="44.4574" width="37.4595" height="13.7606" rx="5" fill="white"/>
<rect x="62.4326" y="103.734" width="37.4595" height="16.9362" rx="5" fill="white"/>
<rect x="80.5947" y="110.085" width="15.8919" height="4.23404" rx="1" fill="#E4E4E4"/>
<rect x="80.5947" y="110.085" width="15.8919" height="4.23404" rx="1" fill="#E4E4E4"/>
<rect x="79.4595" y="110.085" width="15.8919" height="4.23404" rx="1" fill="#E4E4E4"/>
<rect x="107.838" y="103.734" width="37.4595" height="16.9362" rx="5" fill="white"/>
<rect x="124.865" y="110.085" width="15.8919" height="4.23404" rx="1" fill="#E4E4E4"/>
<rect x="152.108" y="103.734" width="37.4595" height="16.9362" rx="5" fill="white"/>
<rect x="170.271" y="110.085" width="15.8919" height="4.23404" rx="1" fill="#E4E4E4"/>
<rect x="62.4326" y="44.4574" width="37.4595" height="13.7606" rx="5" fill="white"/>
<ellipse cx="91.9459" cy="50.8085" rx="3.40541" ry="3.17553" fill="#4DC852" fill-opacity="0.6"/>
<rect x="106.703" y="44.4574" width="38.5946" height="13.7606" rx="5" fill="white"/>
<rect x="61.2974" y="65.6277" width="128.27" height="31.7553" rx="5" fill="white"/>
<path d="M61.2974 135.197C61.2974 132.435 63.5359 130.197 66.2974 130.197H184.568C187.329 130.197 189.568 132.435 189.568 135.197V163.011H61.2974V135.197Z" fill="white"/>
<path d="M68.1084 134.431C68.1084 133.846 68.5823 133.372 69.1669 133.372H81.8066C82.3912 133.372 82.8652 133.846 82.8652 134.431C82.8652 135.015 82.3912 135.489 81.8066 135.489H69.1669C68.5823 135.489 68.1084 135.015 68.1084 134.431Z" fill="#D5D0D0"/>
<g filter="url(#filter0_d)">
<rect x="71.5137" y="139.723" width="22.7027" height="21.1702" rx="1" fill="#F1F1F1"/>
</g>
<g filter="url(#filter1_d)">
<rect x="153.243" y="139.723" width="22.7027" height="21.1702" rx="1" fill="#F1F1F1"/>
</g>
<g filter="url(#filter2_d)">
<rect x="113.514" y="139.723" width="22.7027" height="21.1702" rx="1" fill="#F1F1F1"/>
</g>
<path d="M68.1084 68.8031C68.1084 68.2185 68.5823 67.7446 69.1669 67.7446H81.8066C82.3912 67.7446 82.8652 68.2185 82.8652 68.8031C82.8652 69.3877 82.3912 69.8617 81.8066 69.8617H69.1669C68.5823 69.8617 68.1084 69.3877 68.1084 68.8031Z" fill="#D5D0D0"/>
<ellipse cx="138.486" cy="50.8085" rx="3.40541" ry="3.17553" fill="#FDAA5E" fill-opacity="0.6"/>
<rect x="152.108" y="44.4574" width="37.4595" height="13.7606" rx="5" fill="white"/>
<ellipse cx="182.757" cy="50.8085" rx="3.40541" ry="3.17553" fill="#F74C4C" fill-opacity="0.6"/>
<rect x="200.919" y="43.3989" width="54.4865" height="77.2713" rx="5" fill="white"/>
<rect x="215.676" y="77.2712" width="24.973" height="3.17553" rx="1" fill="#E4E4E4"/>
<rect x="215.676" y="77.2712" width="24.973" height="3.17553" rx="1" fill="#E4E4E4"/>
<path d="M204.324 46.5745C204.324 45.9899 204.798 45.516 205.383 45.516H218.022C218.607 45.516 219.081 45.9899 219.081 46.5745C219.081 47.1591 218.607 47.633 218.022 47.633H205.383C204.798 47.633 204.324 47.1591 204.324 46.5745Z" fill="#D5D0D0"/>
<rect x="215.676" y="65.6277" width="24.973" height="3.17553" rx="1" fill="#E4E4E4"/>
<rect x="215.676" y="53.984" width="24.973" height="3.17553" rx="1" fill="#E4E4E4"/>
<path d="M211.169 113.79C211.169 115.674 209.464 117.245 207.304 117.245C205.144 117.245 203.439 115.674 203.439 113.79C203.439 111.906 205.144 110.335 207.304 110.335C209.464 110.335 211.169 111.906 211.169 113.79Z" fill="url(#paint5_linear)" stroke="white" stroke-width="0.5"/>
<path d="M211.164 78.8591C211.164 80.7432 209.46 82.3139 207.302 82.3139C205.143 82.3139 203.439 80.7432 203.439 78.8591C203.439 76.975 205.143 75.4043 207.302 75.4043C209.46 75.4043 211.164 76.975 211.164 78.8591Z" fill="url(#paint6_linear)" stroke="white" stroke-width="0.5"/>
<path d="M211.164 55.5719C211.164 57.456 209.46 59.0266 207.302 59.0266C205.143 59.0266 203.439 57.456 203.439 55.5719C203.439 53.6877 205.143 52.1171 207.302 52.1171C209.46 52.1171 211.164 53.6877 211.164 55.5719Z" fill="url(#paint7_linear)" stroke="white" stroke-width="0.5"/>
<rect x="215.676" y="100.559" width="24.973" height="3.17553" rx="1" fill="#E4E4E4"/>
<path d="M211.164 102.146C211.164 104.03 209.46 105.601 207.302 105.601C205.143 105.601 203.439 104.03 203.439 102.146C203.439 100.262 205.143 98.6914 207.302 98.6914C209.46 98.6914 211.164 100.262 211.164 102.146Z" fill="url(#paint8_linear)" stroke="white" stroke-width="0.5"/>
<path d="M219.11 155.072C219.11 156.956 217.406 158.527 215.248 158.527C213.089 158.527 211.385 156.956 211.385 155.072C211.385 153.188 213.089 151.617 215.248 151.617C217.406 151.617 219.11 153.188 219.11 155.072Z" fill="url(#paint9_linear)" stroke="white" stroke-width="0.5"/>
<path d="M211.164 67.2154C211.164 69.0995 209.46 70.6702 207.302 70.6702C205.143 70.6702 203.439 69.0995 203.439 67.2154C203.439 65.3313 205.143 63.7606 207.302 63.7606C209.46 63.7606 211.164 65.3313 211.164 67.2154Z" fill="url(#paint10_linear)" stroke="white" stroke-width="0.5"/>
<rect x="10.2158" y="26.4628" width="3.40541" height="2.11702" rx="1" fill="#7FA3FF"/>
<rect x="6.81055" y="26.4628" width="3.40541" height="4.23404" rx="1" fill="#7FA3FF"/>
<rect x="10.2158" y="32.8138" width="3.40541" height="2.11702" rx="1" transform="rotate(-180 10.2158 32.8138)" fill="#7FA3FF"/>
<rect x="13.6216" y="32.8138" width="3.40541" height="4.23404" rx="1" transform="rotate(-180 13.6216 32.8138)" fill="#7FA3FF"/>
<rect x="7.9458" y="42.3405" width="5.67568" height="5.29255" rx="1" fill="#C4C4C4"/>
<rect x="6.81055" y="44.4574" width="1.13514" height="4.23404" rx="0.567568" fill="#C4C4C4"/>
<rect x="6.81055" y="47.6331" width="4.54054" height="1.05851" rx="0.529255" fill="#C4C4C4"/>
<rect x="9.08105" y="43.3989" width="3.40541" height="1.05851" rx="0.529255" fill="white"/>
<rect x="9.08105" y="44.4574" width="2.27027" height="1.05851" rx="0.529255" fill="white"/>
<rect x="215.675" y="88.9149" width="24.973" height="3.17553" rx="1" fill="#E4E4E4"/>
<path d="M211.169 90.5026C211.169 92.3866 209.464 93.9574 207.304 93.9574C205.144 93.9574 203.439 92.3866 203.439 90.5026C203.439 88.6187 205.144 87.0479 207.304 87.0479C209.464 87.0479 211.169 88.6187 211.169 90.5026Z" fill="url(#paint11_linear)" stroke="white" stroke-width="0.5"/>
<rect x="215.676" y="112.202" width="24.973" height="3.17553" rx="1" fill="#E4E4E4"/>
<path d="M69.2432 88.0793L180.486 80.9761V92.0905H69.2432V88.0793Z" fill="#A7F1AA"/>
<path d="M69.2432 81.5053L180.486 79.3883V81.5053L126 86.7979L69.2432 87.8564V81.5053Z" fill="#FFCA99"/>
<path d="M69.2432 79.3883C69.2432 79.3883 86.2702 73.0372 119.189 75.6835C152.108 78.3298 180.486 78.3298 180.486 78.3298V79.3883C180.486 79.3883 159.486 80.4468 124.865 83.3995C90.2432 86.3522 69.2432 83.3995 69.2432 83.3995V79.3883Z" fill="#FFA3A3"/>
<defs>
<filter id="filter0_d" x="71.1137" y="139.723" width="23.5027" height="21.9702" filterUnits="userSpaceOnUse" color-interpolation-filters="sRGB">
<feFlood flood-opacity="0" result="BackgroundImageFix"/>
<feColorMatrix in="SourceAlpha" type="matrix" values="0 0 0 0 0 0 0 0 0 0 0 0 0 0 0 0 0 0 127 0"/>
<feOffset dy="0.4"/>
<feGaussianBlur stdDeviation="0.2"/>
<feColorMatrix type="matrix" values="0 0 0 0 0 0 0 0 0 0 0 0 0 0 0 0 0 0 0.25 0"/>
<feBlend mode="normal" in2="BackgroundImageFix" result="effect1_dropShadow"/>
<feBlend mode="normal" in="SourceGraphic" in2="effect1_dropShadow" result="shape"/>
</filter>
<filter id="filter1_d" x="152.843" y="139.723" width="23.5027" height="21.9702" filterUnits="userSpaceOnUse" color-interpolation-filters="sRGB">
<feFlood flood-opacity="0" result="BackgroundImageFix"/>
<feColorMatrix in="SourceAlpha" type="matrix" values="0 0 0 0 0 0 0 0 0 0 0 0 0 0 0 0 0 0 127 0"/>
<feOffset dy="0.4"/>
<feGaussianBlur stdDeviation="0.2"/>
<feColorMatrix type="matrix" values="0 0 0 0 0 0 0 0 0 0 0 0 0 0 0 0 0 0 0.25 0"/>
<feBlend mode="normal" in2="BackgroundImageFix" result="effect1_dropShadow"/>
<feBlend mode="normal" in="SourceGraphic" in2="effect1_dropShadow" result="shape"/>
</filter>
<filter id="filter2_d" x="113.114" y="139.723" width="23.5027" height="21.9702" filterUnits="userSpaceOnUse" color-interpolation-filters="sRGB">
<feFlood flood-opacity="0" result="BackgroundImageFix"/>
<feColorMatrix in="SourceAlpha" type="matrix" values="0 0 0 0 0 0 0 0 0 0 0 0 0 0 0 0 0 0 127 0"/>
<feOffset dy="0.4"/>
<feGaussianBlur stdDeviation="0.2"/>
<feColorMatrix type="matrix" values="0 0 0 0 0 0 0 0 0 0 0 0 0 0 0 0 0 0 0.25 0"/>
<feBlend mode="normal" in2="BackgroundImageFix" result="effect1_dropShadow"/>
<feBlend mode="normal" in="SourceGraphic" in2="effect1_dropShadow" result="shape"/>
</filter>
<linearGradient id="paint0_linear" x1="257.676" y1="5.2926" x2="265.75" y2="16.4251" gradientUnits="userSpaceOnUse">
<stop stop-color="#19D46F"/>
<stop offset="0.994475" stop-color="#75CAFB"/>
</linearGradient>
<linearGradient id="paint1_linear" x1="197.086" y1="27.5212" x2="197.086" y2="34.9308" gradientUnits="userSpaceOnUse">
<stop stop-color="#33E2D8"/>
<stop offset="1" stop-color="#64F873"/>
</linearGradient>
<linearGradient id="paint2_linear" x1="202.78" y1="27.5211" x2="202.78" y2="34.9307" gradientUnits="userSpaceOnUse">
<stop stop-color="#334FE2"/>
<stop offset="1" stop-color="#DB64F8"/>
</linearGradient>
<linearGradient id="paint3_linear" x1="208.158" y1="27.5211" x2="208.158" y2="34.9307" gradientUnits="userSpaceOnUse">
<stop stop-color="#E23333"/>
<stop offset="1" stop-color="#DB64F8"/>
</linearGradient>
<linearGradient id="paint4_linear" x1="215.248" y1="139.723" x2="215.248" y2="147.133" gradientUnits="userSpaceOnUse">
<stop stop-color="#33E2D8"/>
<stop offset="1" stop-color="#64F873"/>
</linearGradient>
<linearGradient id="paint5_linear" x1="203.189" y1="110.085" x2="208.776" y2="118.064" gradientUnits="userSpaceOnUse">
<stop stop-color="#19D46F"/>
<stop offset="0.994475" stop-color="#75CAFB"/>
</linearGradient>
<linearGradient id="paint6_linear" x1="207.302" y1="75.1543" x2="207.302" y2="82.5639" gradientUnits="userSpaceOnUse">
<stop stop-color="#33E2D8"/>
<stop offset="1" stop-color="#64F873"/>
</linearGradient>
<linearGradient id="paint7_linear" x1="207.302" y1="51.8671" x2="207.302" y2="59.2766" gradientUnits="userSpaceOnUse">
<stop stop-color="#334FE2"/>
<stop offset="1" stop-color="#DB64F8"/>
</linearGradient>
<linearGradient id="paint8_linear" x1="207.302" y1="98.4414" x2="207.302" y2="105.851" gradientUnits="userSpaceOnUse">
<stop stop-color="#334FE2"/>
<stop offset="1" stop-color="#DB64F8"/>
</linearGradient>
<linearGradient id="paint9_linear" x1="215.248" y1="151.367" x2="215.248" y2="158.777" gradientUnits="userSpaceOnUse">
<stop stop-color="#334FE2"/>
<stop offset="1" stop-color="#DB64F8"/>
</linearGradient>
<linearGradient id="paint10_linear" x1="207.302" y1="63.5106" x2="207.302" y2="70.9202" gradientUnits="userSpaceOnUse">
<stop stop-color="#E23333"/>
<stop offset="1" stop-color="#DB64F8"/>
</linearGradient>
<linearGradient id="paint11_linear" x1="207.304" y1="86.7979" x2="207.304" y2="94.2074" gradientUnits="userSpaceOnUse">
<stop stop-color="#E2DB33"/>
<stop offset="1" stop-color="#F89964"/>
</linearGradient>
</defs>
</svg>
