<svg width="218" height="243" viewBox="0 0 218 243" fill="none" xmlns="http://www.w3.org/2000/svg">
<path d="M113.191 99.7243L181.755 136.899C191.524 142.196 191.524 156.218 181.755 161.514L113.188 198.689C108.951 200.987 103.829 200.943 99.632 198.573L33.7942 161.398C24.3054 156.041 24.3054 142.374 33.7941 137.016L99.6343 99.8408C103.832 97.4708 108.953 97.4268 113.191 99.7243Z" fill="#EA5262" stroke="white" stroke-width="8"/>
<path d="M113.191 72.0166L181.755 109.192C191.524 114.489 191.524 128.51 181.755 133.807L113.188 170.981C108.951 173.279 103.829 173.235 99.632 170.865L33.7942 133.691C24.3054 128.333 24.3054 114.666 33.7941 109.309L99.6343 72.133C103.832 69.763 108.953 69.719 113.191 72.0166Z" fill="#FFD231" stroke="white" stroke-width="8"/>
<path d="M113.191 44.3098L181.755 81.4849C191.524 86.7819 191.524 100.803 181.755 106.1L113.188 143.275C108.951 145.572 103.829 145.528 99.632 143.158L33.7942 105.984C24.3054 100.626 24.3054 86.9596 33.7941 81.6019L99.6343 44.4262C103.832 42.0562 108.953 42.0122 113.191 44.3098Z" fill=" #1E92F3" stroke="white" stroke-width="8"/>
</svg>
